# Made in Blockbench 4.9.4
mtllib key.mtl

o cuboid
o cuboid
v 0.03125 0.375 0.03125
v 0.03125 0.4375 0.03125
v 0.03125 0.4375 -0.03125
v 0.03125 0 0.03125
v 0.03125 0 -0.03125
v -0.03125 0.4375 0.03125
v -0.03125 0.4375 -0.03125
v -0.03125 0 0.03125
v -0.03125 0 -0.03125
v -0.03125 0.375 0.03125
v -0.03125 0.375 -0.03125
v 0.03125 0.375 -0.03125
v -0.09375 0.375 0.03125
v -0.09375 0.375 -0.03125
v 0.026456468819703934 0.43731590534384884 -0.03125
v 0.026456468819703934 0.43731590534384884 0.03125
v -0.09375 0.4375 -0.03125
v -0.09375 0.4375 0.03125
v 0.03125 0.5625 -0.03125
v 0.03125 0.5625 0.03125
v -0.09375 0.5625 -0.03125
v -0.09375 0.5625 0.03125
v -0.03125 0.5625 0.03125
v -0.03125 0.5625 -0.03125
v 0.03125 0.5 -0.03125
v 0.03125 0.5 0.03125
v -0.03125 0.5 0.03125
v -0.03125 0.5 -0.03125
v -0.09375 0.5 -0.03125
v -0.09375 0.5 0.03125
v 0.03125 0.5 0.03125
v 0.03125 0.5625 0.03125
v 0.03125 0.5625 -0.03125
v 0.03125 0.5 -0.03125
v 0.03125 0.0625 -0.03125
v 0.03125 0.0625 0.03125
v -0.03125 0.0625 0.03125
v -0.03125 0.0625 -0.03125
v 0.15625 0 -0.03125
v 0.15625 0.0625 -0.03125
v 0.15625 0.0625 0.03125
v 0.15625 0 0.03125
v 0.03125 0.1875 0.03125
v 0.03125 0.1875 -0.03125
v -0.03125 0.1875 -0.03125
v -0.03125 0.1875 0.03125
v 0.03125 0.125 -0.03125
v 0.03125 0.125 0.03125
v -0.03125 0.125 0.03125
v -0.03125 0.125 -0.03125
v 0.09375 0.125 -0.03125
v 0.09375 0.125 0.03125
v -0.016518608725280257 0.18392556509887897 0.016518608725280257
v -0.016518608725280257 0.18392556509887897 -0.04598139127471974
v 0.09375 0.1875 0.03125
v 0.09375 0.1875 -0.03125
v 0.09375 0.4375 0.03125
v 0.09375 0.375 -0.03125
v 0.09375 0.375 0.03125
v 0.09375 0.4375 -0.03125
v 0.09375 0.5625 0.03125
v 0.09375 0.5625 -0.03125
v 0.09375 0.5 0.03125
v 0.09375 0.5 -0.03125
vt 0 1
vt 0 0.9910714285714286
vt 0.0625 0.9910714285714286
vt 0.0625 1
vt 0 1
vt 0 0.9910714285714286
vt 0.0625 0.9910714285714286
vt 0.0625 1
vt 0 0.9375
vt 0.0625 0.9375
vt 0.0625 1
vt 0 1
vt 0.0625 0.9375
vt 0.0625 1
vt 0 1
vt 0 0.9375
vt 0 1
vt 0 0.9910714285714286
vt 0.0625 0.9910714285714286
vt 0.0625 1
vt 0 1
vt 0 0.9910714285714286
vt 0.0625 0.9910714285714286
vt 0.0625 1
vt 0 0.9642857142857143
vt 0 0.9553571428571429
vt 0.0625 0.9553571428571429
vt 0.0625 0.9642857142857143
vt 0 0.9642857142857143
vt 0 0.9553571428571429
vt 0.0625 0.9553571428571429
vt 0.0625 0.9642857142857143
vt 0 0.9642857142857143
vt 0 0.9553571428571429
vt 0.0625 0.9553571428571429
vt 0.0625 0.9642857142857143
vt 0 0.9642857142857143
vt 0 0.9553571428571429
vt 0.0625 0.9553571428571429
vt 0.0625 0.9642857142857143
vt 0.0625 0.9375
vt 0.0625 1
vt 0 1
vt 0 0.9375
vt 0 1
vt 0 0.9375
vt 0.0625 0.9375
vt 0.0625 1
vt 0.0625 1
vt 0.0625 0.9375
vt 0.125 0.9375
vt 0.125 1
vt 0 1
vt 0 0.9375
vt 0.0625 0.9375
vt 0.0625 1
vt 0.0625 0.9375
vt 0.0625 1
vt 0 1
vt 0 0.9375
vt 0.0625 0.9375
vt 0.0625 1
vt 0 1
vt 0 0.9375
vt 0.0625 1
vt 0.0625 0.9375
vt 0.125 0.9375
vt 0.125 1
vt 0.0625 0.9375
vt 0.0625 1
vt 0 1
vt 0 0.9375
vt 0.125 0.9375
vt 0.125 0.96875
vt 0.0625 0.96875
vt 0.0625 0.9375
vt 0.0625 0.9375
vt 0.0625 0.96875
vt 0 0.96875
vt 0 0.9375
vt 0.0625 0.9375
vt 0.0625 0.96875
vt 0 0.96875
vt 0 0.9375
vt 0.0625 0.9375
vt 0.0625 0.96875
vt 0 0.96875
vt 0 0.9375
vt 0.0625 0.9375
vt 0.0625 0.96875
vt 0 0.96875
vt 0 0.9375
vt 0.0625 0.9375
vt 0.0625 0.96875
vt 0 0.96875
vt 0 0.9375
vt 0.125 0.9375
vt 0.125 0.96875
vt 0.0625 0.96875
vt 0.0625 0.9375
vt 0 1
vt 0 0.96875
vt 0.0625 0.96875
vt 0.0625 1
vt 0.0625 1
vt 0.0625 0.96875
vt 0.125 0.96875
vt 0.125 1
vt 0 1
vt 0 0.96875
vt 0.0625 0.96875
vt 0.0625 1
vt 0 1
vt 0 0.96875
vt 0.0625 0.96875
vt 0.0625 1
vt 0 1
vt 0 0.96875
vt 0.0625 0.96875
vt 0.0625 1
vt 0 1
vt 0 0.96875
vt 0.0625 0.96875
vt 0.0625 1
vt 0.0625 0.9375
vt 0.0625 0.96875
vt 0 0.96875
vt 0 0.9375
vt 0.0625 0.9375
vt 0.125 0.9375
vt 0.125 1
vt 0.0625 1
vt 0.0625 0.9375
vt 0.125 0.9375
vt 0.125 1
vt 0.0625 1
vt 0.0625 1
vt 0 1
vt 0 0.9375
vt 0.0625 0.9375
vt 0.0625 0.9375
vt 0.125 0.9375
vt 0.125 1
vt 0.0625 1
vt 0.0625 0.9375
vt 0.0625 0.9464285714285714
vt 0 0.9464285714285714
vt 0 0.9375
vt 0.0625 0.9375
vt 0.0625 0.9464285714285714
vt 0 0.9464285714285714
vt 0 0.9375
vt 0.0625 0.9375
vt 0.0625 0.9464285714285714
vt 0 0.9464285714285714
vt 0 0.9375
vt 0.0625 0.9375
vt 0.0625 0.9464285714285714
vt 0 0.9464285714285714
vt 0 0.9375
vt 0.0625 1
vt 0.0625 0.9375
vt 0.125 0.9375
vt 0.125 1
vt 0.0625 0.9375
vt 0.0625 1
vt 0 1
vt 0 0.9375
vt 0.0625 0.9375
vt 0.0625 1
vt 0 1
vt 0 0.9375
vt 0.0625 0.875
vt 0.0625 0.9375
vt 0 0.9375
vt 0 0.875
vt 0 0.9910714285714286
vt 0 0.9642857142857143
vt 0.0625 0.9642857142857143
vt 0.0625 0.9910714285714286
vt 0 0.9910714285714286
vt 0 0.9642857142857143
vt 0.0625 0.9642857142857143
vt 0.0625 0.9910714285714286
vt 0 0.9910714285714286
vt 0 0.9642857142857143
vt 0.0625 0.9642857142857143
vt 0.0625 0.9910714285714286
vt 0 0.9910714285714286
vt 0 0.9642857142857143
vt 0.0625 0.9642857142857143
vt 0.0625 0.9910714285714286
vt 0.0625 0.9464285714285714
vt 0.0625 0.9553571428571429
vt 0 0.9553571428571429
vt 0 0.9464285714285714
vt 0.0625 0.9464285714285714
vt 0.0625 0.9553571428571429
vt 0 0.9553571428571429
vt 0 0.9464285714285714
vt 0.0625 0.9464285714285714
vt 0.0625 0.9553571428571429
vt 0 0.9553571428571429
vt 0 0.9464285714285714
vt 0.0625 0.9464285714285714
vt 0.0625 0.9553571428571429
vt 0 0.9553571428571429
vt 0 0.9464285714285714
vt 0.0625 0.9375
vt 0.0625 1
vt 0 1
vt 0 0.9375
vt 0.0625 0.9375
vt 0.0625 1
vt 0 1
vt 0 0.9375
vt 0.0625 1
vt 0.0625 0.9375
vt 0.125 0.9375
vt 0.125 1
vt 0.0625 0.9375
vt 0.0625 1
vt 0 1
vt 0 0.9375
vn 1 0 0
vn -1 0 0
vn 0 1 0
vn 0 -1 0
vn 0 0 1
vn 0 0 -1
vn -1 0 0
vn 0 0 -1
vn 1 0 0
vn 0 0 1
vn 0 0 -1
vn 0 -1 0
vn 0 0 1
vn 0 1 0
vn 0 0 1
vn 0 -1 0
vn 0 0 -1
vn 0 1 0
vn 1 0 0
vn 0 0 -1
vn -1 0 0
vn 0 0 1
vn -1 0 0
vn 0 0 1
vn 1 0 0
vn 0 0 1
vn 1 0 0
vn 0 0 -1
vn 0 0 -1
vn -1 0 0
vn 0 0 1
vn 0 0 -1
vn 0 0 1
vn 0 1 0
vn 0 0 -1
vn 0 -1 0
vn 1 0 0
vn 0 0 1
vn -1 0 0
vn 0 0 -1
vn 0 0 -1
vn 0 1 0
vn 0 0 1
vn 0 -1 0
vn 1 0 0
vn 0 0 -1
vn -1 0 0
vn 0 0 1
vn 1 0 0
vn 0 0 1
vn -1 0 0
vn 0 0 -1
vn 0 0 1
vn 0 -1 0
vn 0 0 -1
vn 0 1 0
usemtl none
f 57/1/1 59/2/1 58/3/1 60/4/1
f 17/5/2 14/6/2 13/7/2 18/8/2
f 6/9/3 2/10/3 3/11/3 7/12/3
f 5/13/4 4/14/4 8/15/4 9/16/4
f 6/17/5 10/18/5 1/19/5 2/20/5
f 3/21/6 12/22/6 11/23/6 7/24/6
f 45/25/7 50/26/7 49/27/7 46/28/7
f 44/29/8 47/30/8 50/31/8 45/32/8
f 55/33/9 52/34/9 51/35/9 56/36/9
f 46/37/10 49/38/10 48/39/10 43/40/10
f 14/41/11 17/42/11 7/43/11 11/44/11
f 13/45/12 14/46/12 11/47/12 10/48/12
f 18/49/13 13/50/13 10/51/13 6/52/13
f 21/53/14 22/54/14 23/55/14 24/56/14
f 59/57/15 57/58/15 2/59/15 1/60/15
f 58/61/16 59/62/16 1/63/16 12/64/16
f 60/65/17 58/66/17 12/67/17 3/68/17
f 61/69/18 62/70/18 19/71/18 20/72/18
f 60/73/19 64/74/19 63/75/19 57/76/19
f 3/77/20 25/78/20 64/79/20 60/80/20
f 2/81/21 26/82/21 25/83/21 3/84/21
f 57/85/22 63/86/22 26/87/22 2/88/22
f 18/89/23 30/90/23 29/91/23 17/92/23
f 6/93/24 27/94/24 30/95/24 18/96/24
f 7/97/25 28/98/25 27/99/25 6/100/25
f 20/101/26 26/102/26 63/103/26 61/104/26
f 61/105/27 63/106/27 64/107/27 62/108/27
f 62/109/28 64/110/28 25/111/28 19/112/28
f 24/113/29 28/114/29 29/115/29 21/116/29
f 21/117/30 29/118/30 30/119/30 22/120/30
f 22/121/31 30/122/31 27/123/31 23/124/31
f 17/125/32 29/126/32 28/127/32 7/128/32
f 27/129/33 31/130/33 32/131/33 23/132/33
f 23/133/34 32/134/34 33/135/34 24/136/34
f 24/137/35 33/138/35 34/139/35 28/140/35
f 28/141/36 34/142/36 31/143/36 27/144/36
f 39/145/37 40/146/37 41/147/37 42/148/37
f 4/149/38 36/150/38 37/151/38 8/152/38
f 8/153/39 37/154/39 38/155/39 9/156/39
f 9/157/40 38/158/40 35/159/40 5/160/40
f 40/161/41 39/162/41 5/163/41 35/164/41
f 41/165/42 40/166/42 35/167/42 36/168/42
f 42/169/43 41/170/43 36/171/43 4/172/43
f 39/173/44 42/174/44 4/175/44 5/176/44
f 1/177/45 43/178/45 44/179/45 12/180/45
f 12/181/46 44/182/46 45/183/46 11/184/46
f 11/185/47 45/186/47 46/187/47 10/188/47
f 10/189/48 46/190/48 43/191/48 1/192/48
f 35/193/49 47/194/49 48/195/49 36/196/49
f 36/197/50 48/198/50 49/199/50 37/200/50
f 37/201/51 49/202/51 50/203/51 38/204/51
f 38/205/52 50/206/52 47/207/52 35/208/52
f 52/209/53 55/210/53 43/211/53 48/212/53
f 51/213/54 52/214/54 48/215/54 47/216/54
f 56/217/55 51/218/55 47/219/55 44/220/55
f 55/221/56 56/222/56 44/223/56 43/224/56